<svg width="1063" height="232" viewBox="0 0 1063 232" fill="none" xmlns="http://www.w3.org/2000/svg">
<path d="M322.62 163.702C331.302 168.485 338.743 170.611 345.121 170.611C353.979 170.611 357.345 166.182 357.345 160.336C357.345 143.505 314.825 146.162 314.825 109.666C314.825 90.1778 329.176 76.7131 351.676 76.7131C363.192 76.7131 373.467 79.5478 383.034 85.04L374.885 105.06C368.152 101.694 360.534 98.859 353.802 98.859C345.652 98.859 343.172 103.288 343.172 108.249C343.172 125.08 386.578 122.245 386.578 159.096C386.578 181.064 370.455 193.643 348.132 193.643C334.136 193.643 324.746 190.631 314.116 184.43L322.62 163.702Z" fill="black"/>
<path d="M461.519 190.1C455.318 192.049 446.637 193.82 438.665 193.82C424.491 193.82 412.267 188.328 412.267 163.702V101.694H398.625V79.1935H412.09V48.5437L440.791 44.646V79.3707H461.342V101.871H440.791V158.741C440.791 166.537 442.385 169.194 449.826 169.194C452.129 169.194 455.673 168.84 459.57 168.131L461.519 190.1Z" fill="black"/>
<path d="M564.807 209.943C583.587 209.943 587.13 202.324 587.13 190.277V180.356C576.146 189.568 568.173 192.935 558.961 192.935C538.764 192.935 524.768 173.446 524.768 136.241C524.768 96.5559 541.776 76.8904 563.39 76.8904C571.894 76.8904 578.803 80.0794 589.788 90.8865L592.091 79.3707H615.477V186.202C615.477 222.876 592.8 231.734 570.299 231.734C559.847 231.734 549.925 231.203 542.307 229.962L538.409 209.943H564.807ZM586.953 113.387C580.221 106.832 574.729 103.288 569.414 103.288C560.201 103.288 553.823 113.741 553.823 135.533C553.823 156.261 559.315 166.891 568.705 166.891C573.666 166.891 580.044 163.348 586.953 156.615V113.387Z" fill="black"/>
<path d="M704.238 191.694L701.757 179.647C689.887 189.923 681.737 193.998 668.627 193.998C650.733 193.998 637.269 179.647 637.269 158.033C637.269 136.596 654.454 122.954 692.899 122.954H699.277V119.942C699.277 106.832 696.619 99.7449 682.092 99.7449C671.639 99.7449 659.414 102.934 647.367 106.832L641.875 86.9889C656.403 80.7881 672.17 76.8904 686.344 76.8904C716.816 76.8904 727.801 86.9889 727.801 114.45V191.694H704.238ZM699.277 143.859H692.013C671.107 143.859 666.324 148.82 666.324 156.97C666.324 164.765 671.107 170.612 678.017 170.612C684.572 170.612 690.419 167.068 699.277 158.919V143.859Z" fill="black"/>
<path d="M755.084 191.694V37.3822L783.608 33.1301V191.694H755.084Z" fill="black"/>
<path d="M810.538 191.694V37.3822L839.061 33.1301V191.694H810.538Z" fill="black"/>
<path d="M950.322 184.962C934.908 191.34 921.089 193.82 906.385 193.82C873.432 193.82 861.384 175.218 861.384 136.064C861.384 97.0874 878.392 76.8904 909.396 76.8904C933.845 76.8904 951.739 92.8354 951.739 126.851C951.739 131.812 951.562 138.899 950.853 144.391H890.262C890.262 162.993 896.286 170.612 910.637 170.612C919.318 170.612 932.605 168.663 945.007 165.119L950.322 184.962ZM923.747 122.068C923.747 109.135 919.318 99.2134 907.448 99.2134C895.223 99.2134 890.44 110.906 890.262 123.662H923.924V122.068H923.747Z" fill="black"/>
<path d="M1034.3 191.694V123.485C1034.3 112.324 1030.76 103.465 1022.25 103.465C1017.11 103.465 1010.74 106.832 1003.47 113.564V191.872H974.948V79.5479H998.689L1000.81 91.241C1014.63 79.9023 1022.61 77.0676 1033.59 77.0676C1050.95 77.0676 1063 89.6464 1063 115.867V191.694H1034.3Z" fill="black"/>
<path d="M508.823 161.222H479.767V191.163H508.823V161.222Z" fill="black"/>
<path d="M317.305 0H237.935L132.166 158.564H211.537L317.305 0Z" fill="black"/>
<path d="M185.139 0H105.769L0 158.564H79.3707L185.139 0Z" fill="#E53312"/>
</svg>
