<svg width="955" height="241" viewBox="0 0 955 241" fill="none" xmlns="http://www.w3.org/2000/svg">
<g clip-path="url(#clip0_9_13)">
<path d="M427.867 31.4586V124.21H402.826V31.4586H371.689V9.21797H459.004V31.4586H427.867ZM508.096 9.21797V79.729C508.096 87.8564 509.688 93.952 512.873 98.0157C516.059 101.97 521.385 103.947 528.854 103.947C536.322 103.947 541.649 101.97 544.834 98.0157C548.019 93.952 549.612 87.8564 549.612 79.729V9.21797H573.994V77.093C573.994 85.55 573.17 92.9086 571.523 99.1689C569.985 105.319 567.404 110.427 563.78 114.49C560.155 118.444 555.488 121.41 549.776 123.386C544.065 125.254 537.091 126.187 528.854 126.187C520.617 126.187 513.642 125.254 507.931 123.386C502.22 121.41 497.552 118.444 493.928 114.49C490.303 110.427 487.667 105.319 486.02 99.1689C484.482 92.9086 483.714 85.55 483.714 77.093V9.21797H508.096ZM692.995 48.7568H692.501L684.099 65.5609L661.694 106.253L639.783 65.7256L631.051 47.6036H630.557V124.21H606.998V9.21797H633.522L661.694 63.0897H662.023L689.865 9.21797H716.554V124.21H692.995V48.7568ZM763.068 126.022C758.125 126.022 754.446 124.814 752.03 122.398C749.723 119.872 748.57 116.687 748.57 112.843V109.548C748.57 105.704 749.723 102.574 752.03 100.157C754.446 97.6313 758.125 96.3682 763.068 96.3682C768.01 96.3682 771.634 97.6313 773.941 100.157C776.357 102.574 777.565 105.704 777.565 109.548V112.843C777.565 116.687 776.357 119.872 773.941 122.398C771.634 124.814 768.01 126.022 763.068 126.022ZM872.863 124.21C868.469 124.21 864.79 122.837 861.825 120.092C858.969 117.346 857.157 113.667 856.388 109.054H855.4C854.082 114.655 851.171 118.938 846.668 121.904C842.165 124.759 836.619 126.187 830.029 126.187C821.352 126.187 814.707 123.881 810.095 119.268C805.482 114.655 803.175 108.559 803.175 100.981C803.175 91.8652 806.47 85.1106 813.06 80.7174C819.76 76.2144 828.821 73.9629 840.243 73.9629H853.917V68.5263C853.917 64.3527 852.819 61.0578 850.622 58.6416C848.425 56.1155 844.746 54.8524 839.584 54.8524C834.752 54.8524 830.907 55.8958 828.052 57.9826C825.196 60.0694 822.835 62.4307 820.968 65.0666L806.47 52.2165C809.985 47.0545 814.378 43.0457 819.65 40.1901C825.032 37.2247 832.28 35.742 841.396 35.742C853.697 35.742 862.923 38.4328 869.073 43.8145C875.224 49.1962 878.299 57.049 878.299 67.3731V105.264H886.372V124.21H872.863ZM839.09 109.218C843.154 109.218 846.613 108.34 849.469 106.582C852.434 104.825 853.917 101.97 853.917 98.0157V87.8015H842.055C832.5 87.8015 827.722 91.0415 827.722 97.5215V99.9926C827.722 103.178 828.711 105.539 830.688 107.077C832.665 108.504 835.465 109.218 839.09 109.218ZM923.165 28.4932C918.223 28.4932 914.599 27.3949 912.292 25.1983C910.095 22.8918 908.997 19.9813 908.997 16.4668V12.8424C908.997 9.3278 910.095 6.47222 912.292 4.27561C914.599 1.96918 918.223 0.815962 923.165 0.815962C928.108 0.815962 931.677 1.96918 933.874 4.27561C936.18 6.47222 937.333 9.3278 937.333 12.8424V16.4668C937.333 19.9813 936.18 22.8918 933.874 25.1983C931.677 27.3949 928.108 28.4932 923.165 28.4932ZM910.974 37.7189H935.356V124.21H910.974V37.7189Z" fill="#151E35"/>
<path d="M391.991 225.232C388.97 225.232 386.396 224.683 384.268 223.585C382.174 222.486 380.373 221.01 378.862 219.157L382.878 215.399C384.148 216.943 385.538 218.11 387.048 218.9C388.593 219.689 390.343 220.084 392.299 220.084C394.599 220.084 396.332 219.569 397.499 218.539C398.666 217.51 399.25 216.12 399.25 214.369C399.25 212.962 398.838 211.846 398.014 211.023C397.19 210.199 395.732 209.581 393.638 209.169L390.446 208.603C386.945 207.951 384.32 206.801 382.569 205.154C380.819 203.506 379.944 201.241 379.944 198.358C379.944 196.779 380.235 195.355 380.819 194.085C381.437 192.781 382.277 191.7 383.341 190.841C384.44 189.949 385.761 189.263 387.306 188.782C388.85 188.302 390.583 188.061 392.505 188.061C395.217 188.061 397.568 188.542 399.559 189.503C401.549 190.43 403.248 191.785 404.655 193.57L400.588 197.174C399.661 195.973 398.529 195.012 397.19 194.291C395.852 193.57 394.187 193.21 392.196 193.21C390.137 193.21 388.541 193.622 387.409 194.445C386.276 195.269 385.71 196.47 385.71 198.049C385.71 199.559 386.173 200.692 387.1 201.447C388.026 202.168 389.468 202.717 391.424 203.094L394.616 203.764C398.22 204.45 400.846 205.617 402.493 207.265C404.175 208.912 405.016 211.177 405.016 214.06C405.016 215.742 404.724 217.269 404.14 218.642C403.557 220.015 402.699 221.199 401.566 222.195C400.468 223.156 399.112 223.911 397.499 224.46C395.886 224.975 394.05 225.232 391.991 225.232ZM427.053 193.827V224.614H421.236V193.827H410.527V188.679H437.762V193.827H427.053ZM451.515 188.679V210.817C451.515 213.871 452.099 216.171 453.266 217.716C454.433 219.26 456.423 220.032 459.238 220.032C462.052 220.032 464.043 219.26 465.21 217.716C466.377 216.171 466.96 213.871 466.96 210.817V188.679H472.675V209.89C472.675 212.533 472.434 214.815 471.954 216.737C471.473 218.659 470.701 220.255 469.637 221.525C468.573 222.761 467.183 223.688 465.467 224.305C463.785 224.923 461.709 225.232 459.238 225.232C456.766 225.232 454.673 224.923 452.957 224.305C451.275 223.688 449.902 222.761 448.838 221.525C447.774 220.255 447.002 218.659 446.521 216.737C446.041 214.815 445.801 212.533 445.801 209.89V188.679H451.515ZM483.875 188.679H496.591C498.891 188.679 500.967 189.057 502.82 189.812C504.708 190.567 506.304 191.7 507.608 193.21C508.947 194.686 509.976 196.556 510.697 198.821C511.418 201.052 511.778 203.661 511.778 206.647C511.778 209.633 511.418 212.258 510.697 214.524C509.976 216.755 508.947 218.625 507.608 220.135C506.304 221.611 504.708 222.727 502.82 223.482C500.967 224.237 498.891 224.614 496.591 224.614H483.875V188.679ZM496.591 219.466C499.268 219.466 501.43 218.625 503.078 216.943C504.725 215.262 505.549 212.79 505.549 209.53V203.764C505.549 200.503 504.725 198.032 503.078 196.35C501.43 194.668 499.268 193.827 496.591 193.827H489.692V219.466H496.591ZM521.592 224.614V188.679H544.605V193.827H527.409V203.815H543.009V208.963H527.409V219.466H544.605V224.614H521.592ZM564.363 204.742L560.398 197.122H560.244V224.614H554.684V188.679H561.171L572.909 208.552L576.873 216.171H577.027V188.679H582.588V224.614H576.101L564.363 204.742ZM607.344 193.827V224.614H601.526V193.827H590.818V188.679H618.052V193.827H607.344ZM639.494 224.614V219.878H644.385V193.416H639.494V188.679H655.145V193.416H650.202V219.878H655.145V224.614H639.494ZM674.709 204.742L670.745 197.122H670.59V224.614H665.03V188.679H671.517L683.255 208.552L687.219 216.171H687.374V188.679H692.934V224.614H686.447L674.709 204.742ZM702.812 224.614V219.878H707.703V193.416H702.812V188.679H718.463V193.416H713.52V219.878H718.463V224.614H702.812ZM741.381 193.827V224.614H735.563V193.827H724.855V188.679H752.089V193.827H741.381ZM758.488 224.614V219.878H763.379V193.416H758.488V188.679H774.139V193.416H769.196V219.878H774.139V224.614H758.488ZM806.471 224.614L803.227 214.884H789.79L786.65 224.614H780.729L792.982 188.679H800.293L812.546 224.614H806.471ZM796.637 194.033H796.38L791.18 209.89H801.786L796.637 194.033ZM830.651 193.827V224.614H824.834V193.827H814.125V188.679H841.36V193.827H830.651ZM847.758 224.614V219.878H852.649V193.416H847.758V188.679H863.409V193.416H858.467V219.878H863.409V224.614H847.758ZM881.583 224.614L869.794 188.679H875.817L881.532 206.441L884.981 218.951H885.187L888.688 206.441L894.403 188.679H900.272L888.328 224.614H881.583ZM908.196 224.614V188.679H931.209V193.827H914.014V203.815H929.613V208.963H914.014V219.466H931.209V224.614H908.196Z" fill="#151E35"/>
<path fill-rule="evenodd" clip-rule="evenodd" d="M12.6098 203.037L89.2717 20.7592C92.8084 12.35 101.14 6.86707 110.382 6.86707C110.57 6.86707 110.757 6.86924 110.944 6.87355C111.13 6.86924 111.318 6.86707 111.506 6.86707C120.747 6.86707 129.029 14.1888 132.566 22.598L209.278 203.037C215.357 217.492 204.57 233.392 188.684 233.392C179.72 233.392 171.629 228.104 168.145 219.971L126.674 123.145C120.749 109.311 101.138 109.311 95.2133 123.145L53.7425 219.971C50.2588 228.104 42.1673 233.392 33.204 233.392C17.3176 233.392 6.53037 217.492 12.6098 203.037Z" fill="url(#paint0_linear_9_13)"/>
<path d="M89.3994 20.8267L12.9797 202.529C6.81457 217.187 17.5788 233.392 33.4811 233.392C42.3799 233.392 50.4221 228.088 53.9256 219.908L120.45 64.5859L131.427 38.5101C137.752 23.4834 126.718 6.86707 110.414 6.86707C101.238 6.86707 92.9568 12.3683 89.3994 20.8267Z" fill="#151E35" stroke="#151E35" stroke-width="0.629236" stroke-linecap="round" stroke-linejoin="round"/>
<path d="M202.6 20.8267L279.02 202.529C285.185 217.187 274.421 233.392 258.518 233.392C249.619 233.392 241.577 228.088 238.074 219.908L171.549 64.5859L160.573 38.5101C154.247 23.4834 165.281 6.86707 181.585 6.86707C190.761 6.86707 199.043 12.3683 202.6 20.8267Z" fill="#151E35"/>
</g>
<defs>
<linearGradient id="paint0_linear_9_13" x1="115.438" y1="73.4323" x2="258.621" y2="135.336" gradientUnits="userSpaceOnUse">
<stop stop-color="#3F2199"/>
<stop offset="0.162555" stop-color="#5C2EE8"/>
</linearGradient>
<clipPath id="clip0_9_13">
<rect width="954.15" height="240.254" fill="white"/>
</clipPath>
</defs>
</svg>
